<svg id="wht" xmlns="http://www.w3.org/2000/svg" viewBox="0 0 370.69 37.65"><defs><style>.cls-1{fill:#fff;}.cls-2{fill:#a90533;}.cls-3{fill:#004785;}</style></defs><title>Wharton_WRDS-LOGO</title><path class="cls-1" d="M41.42,31.79v.29h0c.43,0,.65.18.69.42l0,.12,0,.33v2.33c0,1.34-.61,2.07-1.71,2.07s-1.53-.63-1.53-2V32.78c0-.61,0-.61.59-.68l.13,0v-.29H37.34v.29l.13,0c.59.07.59.07.59.68v2.6c0,1.71.73,2.47,2.38,2.47a2.25,2.25,0,0,0,2.27-2.52V33l0-.33,0-.11c0-.25.25-.38.69-.42h0v-.29Z" transform="translate(-1.92 -2.31)"/><path class="cls-1" d="M47.38,33.13v.25h0c.44,0,.62.12.64.32v.08l0,.26v2.56l-2.87-3.46-1.25,0v.25h0a.88.88,0,0,1,.72.43v3l0,.25v.1c0,.19-.19.29-.52.32h0v.25H45.8v-.25h0c-.43,0-.62-.12-.64-.32v-.1l0-.24V34.07l1.84,2.18,1.25,1.49h.28V34l0-.26V33.7c0-.19.19-.29.52-.32h0v-.24Z" transform="translate(-1.92 -2.31)"/><path class="cls-1" d="M50.16,33.13v.24h.11c.45.05.45.05.45.52V37c0,.47,0,.47-.44.52h-.11v.25H52v-.25h-.11c-.44-.05-.44-.05-.44-.51V33.9c0-.46,0-.46.44-.51H52v-.24Z" transform="translate(-1.92 -2.31)"/><path class="cls-1" d="M56.05,33.13v.25h0a.49.49,0,0,1,.42.15.27.27,0,0,1,0,.15.7.7,0,0,1-.06.25l-.29.73-.88,2.15L54.4,34a1.15,1.15,0,0,1-.07-.36.32.32,0,0,1,0-.19c.06-.09.18-.12.39-.12h0v-.25H53v.25h0c.26,0,.46.14.71.87L55,37.74h.39l1.65-4a.51.51,0,0,1,.5-.37h0v-.25Z" transform="translate(-1.92 -2.31)"/><path class="cls-1" d="M58.45,33.13v.24h.11c.45.05.45.05.45.52V37c0,.47,0,.47-.45.52h-.11v.25h3.26l.21-1.25h-.24l-.12.29c-.19.48-.26.67-1,.67-.59,0-.79,0-.79-.56V35.48h.5c.37,0,.54.17.56.57v0H61V34.62h-.25v0c0,.38-.17.52-.56.52h-.5V33.41h.84c.42,0,.55.31.62.8v0h.24V33.13Z" transform="translate(-1.92 -2.31)"/><path class="cls-1" d="M65.93,36.53l-.61-.93a1.43,1.43,0,0,0,.89-1.33,1.2,1.2,0,0,0-1.35-1.14H62.94v.24h.11c.45.05.45.05.45.52V37c0,.47,0,.47-.45.52h-.11v.25h1.82v-.25h-.11c-.43,0-.45-.05-.45-.46V35.73h.57s.55,1,.55,1c.35.66.53,1,.82,1h.71v-.12A4.77,4.77,0,0,1,65.93,36.53ZM64.7,35.45h-.5v-2h.46c.37,0,.82.16.82.91S65.22,35.45,64.7,35.45Z" transform="translate(-1.92 -2.31)"/><path class="cls-1" d="M67.87,34.13a1.33,1.33,0,0,0,.75,1.19l.05,0c1,.66,1.18,1,1.18,1.37a.78.78,0,0,1-.79.78,1,1,0,0,1-1-1v0h-.25v1a.12.12,0,0,0,.07.13,3.06,3.06,0,0,0,1.12.21c.78,0,1.61-.43,1.61-1.24,0-.55-.22-.89-.92-1.41L69.45,35c-.51-.38-.85-.63-.85-1a.6.6,0,0,1,.67-.63.77.77,0,0,1,.78.78v0h.24v-.89a.1.1,0,0,0-.07-.11,3.14,3.14,0,0,0-.92-.13C68.51,33.05,67.87,33.54,67.87,34.13Z" transform="translate(-1.92 -2.31)"/><path class="cls-1" d="M71.87,33.13v.24H72c.45.05.45.05.45.52V37c0,.47,0,.47-.45.52h-.11v.25h1.82v-.25h-.11c-.45-.05-.45-.05-.44-.52V33.9c0-.46,0-.46.44-.52h.11v-.24Z" transform="translate(-1.92 -2.31)"/><path class="cls-1" d="M74.82,33.13l-.19,1.07h.23l.06-.12c.19-.38.33-.66.82-.66h.54c0,.08,0,3.58,0,3.6,0,.41,0,.42-.45.47h-.11v.25h1.82v-.25h-.11c-.43,0-.44-.05-.44-.45,0,0,0-3.54,0-3.61h.54c.5,0,.64.28.83.67l.06.11h.24l-.19-1.07Z" transform="translate(-1.92 -2.31)"/><path class="cls-1" d="M82,33.13v.25h0a.43.43,0,0,1,.39.15.21.21,0,0,1,0,.11.57.57,0,0,1-.09.27l-.85,1.56-.75-1.56a.88.88,0,0,1-.11-.33.18.18,0,0,1,0-.09c0-.07.16-.1.33-.1h0v-.25H79.32v.25h0c.28,0,.45.15.66.56l1,2V37c0,.46,0,.46-.45.51h-.11v.25h1.82v-.25h-.11c-.44-.05-.44-.05-.44-.51v-.81a1.09,1.09,0,0,1,.07-.45l1.08-2c.19-.33.36-.37.5-.37h0v-.25Z" transform="translate(-1.92 -2.31)"/><path class="cls-1" d="M86.67,36.15c0-1.1,1-2.75,2.35-2.75,1.12,0,1.36.76,1.36,1.51,0,.92-.74,2.89-2.34,2.89-1.08,0-1.37-.86-1.37-1.65Zm2.94-1.64c0-.87-.53-.91-.66-.91-.91,0-1.5,1.63-1.5,2.72,0,.44.07,1.22.69,1.22,1,0,1.47-1.57,1.47-3Z" transform="translate(-1.92 -2.31)"/><path class="cls-1" d="M94.29,33.68l-.2.18H93a49.78,49.78,0,0,1-1.56,5.93H91l1.2-5.93h-.8l.08-.35h.79a2.4,2.4,0,0,1,2.27-2,1.43,1.43,0,0,1,.72.15l-.1.55-.21.1a.88.88,0,0,0-.74-.49c-.51,0-.88.34-1.08,1.25l-.09.4h1.23l0,.18Z" transform="translate(-1.92 -2.31)"/><path class="cls-1" d="M97.75,31.79v.29l.13,0c.59.07.59.07.59.68v4c0,.61,0,.61-.59.68l-.14,0v.29h2.34v-.29l-.14,0c-.56-.07-.59-.07-.59-.61V32.14h.47c.92,0,1.35.42,1.35,1.33a1.54,1.54,0,0,1-.4,1.13,1.47,1.47,0,0,1-1.1.37h0v.25h0a2.54,2.54,0,0,0,1.9-.58,1.67,1.67,0,0,0,.52-1.24c0-1-.73-1.6-2.12-1.6Z" transform="translate(-1.92 -2.31)"/><path class="cls-1" d="M103.19,33.13v.24h.11c.45.05.45.05.44.52V37c0,.47,0,.47-.44.52h-.11v.25h3.26l.21-1.25h-.24l-.12.29c-.19.49-.27.67-1,.67-.59,0-.8,0-.8-.56V35.48h.5c.38,0,.54.17.55.57v0h.25V34.62h-.25v0c0,.38-.16.52-.55.52h-.5V33.41h.84c.43,0,.55.31.62.8v0h.24V33.13Z" transform="translate(-1.92 -2.31)"/><path class="cls-1" d="M110.83,33.13v.25h0c.44,0,.62.12.64.32v.08l0,.27v2.56l-2.88-3.46-1.25,0v.25h0a.87.87,0,0,1,.72.43v3l0,.26v.08c0,.19-.19.29-.52.32h0v.25h1.66v-.25h0c-.43,0-.62-.12-.64-.32v-.09l0-.25V34.07l1.82,2.15,1.27,1.51h.28V34l0-.25V33.7c0-.19.19-.28.52-.32h0v-.24Z" transform="translate(-1.92 -2.31)"/><path class="cls-1" d="M116.74,33.13v.25h0c.44,0,.62.12.65.32v.09l0,.25V36.6l-2.88-3.46-1.25,0v.25h0a.87.87,0,0,1,.72.43v3l0,.26v.09c0,.19-.19.29-.52.32h0v.25h1.67v-.25h0c-.43,0-.62-.12-.64-.32v-.09l0-.25V34.07l1.72,2,1.37,1.63h.28V34l0-.26V33.7c0-.19.19-.29.52-.32h0v-.24Z" transform="translate(-1.92 -2.31)"/><path class="cls-1" d="M119.55,34.13a1.33,1.33,0,0,0,.75,1.19l.06,0c1,.66,1.18,1,1.18,1.37a.78.78,0,0,1-.79.78,1,1,0,0,1-1-1v0h-.24v1a.13.13,0,0,0,.07.13,3.06,3.06,0,0,0,1.13.21c.78,0,1.61-.43,1.61-1.24,0-.55-.22-.89-.92-1.41l-.24-.18c-.51-.38-.85-.63-.85-1a.61.61,0,0,1,.67-.63.77.77,0,0,1,.78.78v0H122v-.89a.1.1,0,0,0-.08-.11,3.12,3.12,0,0,0-.91-.13C120.19,33.05,119.55,33.54,119.55,34.13Z" transform="translate(-1.92 -2.31)"/><path class="cls-1" d="M125.87,33.13v.25h0a.43.43,0,0,1,.39.15.22.22,0,0,1,0,.11.57.57,0,0,1-.08.27l-.86,1.56-.75-1.56a.91.91,0,0,1-.11-.33.17.17,0,0,1,0-.09c0-.07.15-.1.33-.1h0v-.25H123.2v.25h0c.28,0,.45.15.66.56l1,2V37c0,.46,0,.46-.44.51h-.11v.25h1.82v-.25H126c-.45-.05-.45-.05-.45-.52v-.8a1,1,0,0,1,.07-.45l1.08-2c.18-.33.36-.37.49-.37h0v-.25Z" transform="translate(-1.92 -2.31)"/><path class="cls-1" d="M128.32,33.13v.24h.11c.45.05.45.05.45.52V37c0,.47,0,.47-.45.52h-.11v.25h3.25l.21-1.25h-.24l-.11.28c-.2.49-.27.68-1.06.68-.61,0-.79-.06-.79-.46V33.9c0-.46,0-.46.45-.52h.11v-.24Z" transform="translate(-1.92 -2.31)"/><path class="cls-1" d="M134.91,33.13v.25h0a.49.49,0,0,1,.42.15.26.26,0,0,1,0,.15.7.7,0,0,1-.06.26l-.35.88-.81,2L133.26,34a1.18,1.18,0,0,1-.07-.36.33.33,0,0,1,0-.19c.06-.09.18-.12.39-.12h0v-.25h-1.84v.25h0c.26,0,.46.14.71.87l1.24,3.5h.38l1.65-4a.5.5,0,0,1,.5-.37h0v-.25Z" transform="translate(-1.92 -2.31)"/><path class="cls-1" d="M140.63,37.49c-.25,0-.34-.17-.49-.54l-1-2.86-.35-1h-.42l-.47,1.26c-.45,1.21-.91,2.46-1.11,2.88a.49.49,0,0,1-.43.3h0v.25h1.26v-.25h0a.31.31,0,0,1-.26-.11.27.27,0,0,1,0-.16.43.43,0,0,1,0-.14l.29-.84h1.59l.27.81a.64.64,0,0,1,0,.22.19.19,0,0,1,0,.12c0,.07-.16.11-.32.11h0v.25h1.59v-.25Zm-2.94-1.58.72-2,.64,2Z" transform="translate(-1.92 -2.31)"/><path class="cls-1" d="M154.37,37.49c-.25,0-.34-.17-.49-.54l-1-2.86-.35-1h-.42l-.47,1.26c-.45,1.21-.91,2.46-1.11,2.88a.5.5,0,0,1-.43.3h0v.25h1.26v-.25h0a.3.3,0,0,1-.26-.11.27.27,0,0,1,0-.16.41.41,0,0,1,0-.14l.29-.84h1.59l.27.81a.64.64,0,0,1,0,.22.21.21,0,0,1,0,.12c0,.07-.16.11-.32.11h0v.25h1.59v-.25Zm-2.94-1.58.72-2,.64,2Z" transform="translate(-1.92 -2.31)"/><path class="cls-1" d="M144.7,33.13v.25h0c.44,0,.62.12.64.32v.07l0,.27v2.56l-1.29-1.56-1.58-1.91-1.25,0v.25h0a.86.86,0,0,1,.72.43v3l0,.27v.08c0,.19-.19.29-.52.32h0v.25h1.67v-.25h0c-.43,0-.62-.12-.65-.32v-.08l0-.27V34.07l3.1,3.67h.28V34l0-.25v-.1c0-.19.19-.28.52-.32h0v-.24Z" transform="translate(-1.92 -2.31)"/><path class="cls-1" d="M147.34,33.13v.24h.11c.45.05.45.05.45.52V37c0,.46,0,.46-.45.52h-.11v.25h1.82v-.25h-.11c-.45-.05-.45-.05-.45-.52V33.91c0-.47,0-.47.45-.52h.11v-.24Z" transform="translate(-1.92 -2.31)"/><path class="cls-1" d="M95.35,24.7V19.79c-1.58.69-5.67,1.68-5.67,3.81a2.52,2.52,0,0,0,2.53,2.58c1.34,0,2.11-.73,3.13-1.48Zm0-5.76V15.19c0-1.37-.88-1.74-2.18-1.74s-3.09.86-3.1,1.6c0,.21.08.46.08.8,0,1.31-.33,2.19-1.84,2.19a1.14,1.14,0,0,1-1.06-1.17,3,3,0,0,1,1.27-2.1,10.75,10.75,0,0,1,6.19-2.37,3,3,0,0,1,3.31,3.34V25c0,.58,0,1.62.81,1.62.56,0,.88-.72,1-1.17h.56c-.18,1.65-.88,2.61-2.57,2.61a2.53,2.53,0,0,1-2.43-2.37c-1.65,1.2-2.78,2.37-5,2.37a3.08,3.08,0,0,1-3.13-2.92c0-3.78,5.21-5,8.06-6.15Z" transform="translate(-1.92 -2.31)"/><path class="cls-1" d="M126,20.2c0,2.65,1,7,4.43,7s4.5-3.48,4.5-6.2c0-2.92-.42-7.92-4.47-7.92C127,13.1,126,17.62,126,20.2Zm-3-.14a7.4,7.4,0,0,1,7.35-7.7c4.61,0,7.56,3.47,7.56,7.84S135,28,130.36,28,123,24.43,123,20.06Z" transform="translate(-1.92 -2.31)"/><path class="cls-1" d="M37.47,4.6V3.8h8v.8c-1.48,0-2,0-2,.92a2.06,2.06,0,0,0,.16.62l4.82,16.4L55.2,3h.56L61.68,22.3S66.36,8.2,66.36,6.21c0-1.58-1-1.47-2.26-1.61V3.8H69A11.76,11.76,0,0,0,74.6,2.31V14.78c1.52-1.35,2.81-2.44,5-2.44a4.47,4.47,0,0,1,3.94,2.1,6.5,6.5,0,0,1,.88,3.68V25c0,1.79.46,1.79,2,1.89v.65H79.74v-.65c1.44-.1,1.9-.1,1.9-1.89V18.11a4.83,4.83,0,0,0-.49-2.61,2.92,2.92,0,0,0-2.85-1.75,6.11,6.11,0,0,0-3.69,2.18V25c0,1.79.46,1.79,1.94,1.89v.65H69.79v-.65c1.58-.1,2-.1,2-1.89V4.81a10.77,10.77,0,0,0-1.26,0C67.86,5,67.79,7,66.93,9.51L60.87,28h-.63l-6-18.54L47.33,28h-.6L40.34,7.65a7.18,7.18,0,0,0-1.13-2.54c-.32-.31-.33-.51-1.73-.51Z" transform="translate(-1.92 -2.31)"/><path class="cls-1" d="M145,27.59v-.65c-1.52-.1-2-.1-2-1.89V16.9c0-1.58,2.11-3,3.63-3a3.28,3.28,0,0,1,3.52,3.61V25c0,1.79-.46,1.79-2,1.89v.65h7v-.65c-1.19-.1-2.15-.1-2.15-1.89V16.9c0-2.58-2.6-4.54-5.13-4.54-2.22,0-3.34,1-4.79,2.47V12.36a23.6,23.6,0,0,1-4.76,1.57v.55c1.46.15,2,.62,2,1.93V25c0,1.79-.46,1.79-2,1.89v.65Z" transform="translate(-1.92 -2.31)"/><path class="cls-1" d="M108.2,27.59v-.65c-1.79-.1-2.25-.1-2.25-1.89V15.93c0-.55.91-1.41,1.9-1.42s1.07,1.06,2.22,1.06c1.41,0,1.75-.75,1.75-1.78s-1.15-1.68-2.43-1.68c-1.51,0-2.68,1.32-3.52,2.47V12.26a19.93,19.93,0,0,1-4.9,1.67v.55c1.57.16,2.19.54,2.19,1.87V25c0,1.79-.46,1.79-2,1.89v.65Z" transform="translate(-1.92 -2.31)"/><path class="cls-1" d="M122.88,13.2l.51-1.89h-6.05V8.24H117a41.9,41.9,0,0,1-4.41,4.56v.4h1.92V23.56c0,2.46,1.11,4.5,3.77,4.5,2.29,0,4-1.66,5-2.78l-.42-.58a4.1,4.1,0,0,1-2.92,1.47c-2,0-2.55-1.1-2.55-3v-10Z" transform="translate(-1.92 -2.31)"/><path class="cls-1" d="M1.92,3.78V20c0,13.22,14.34,19.91,16.18,20S34.3,33.21,34.3,20V3.78Z" transform="translate(-1.92 -2.31)"/><path class="cls-2" d="M2.77,4.6V14H33.43V4.6ZM29.19,6.45l0,0,.29-.13a1.52,1.52,0,0,1,.69-.09c.31,0,.71.4,1.13.47v3.75a6.09,6.09,0,0,1-1.22-.07,3,3,0,0,0-.93-.32Zm-2.54.22a6.42,6.42,0,0,0,1-.44l.14,0a1.61,1.61,0,0,1,1,.24V10a3,3,0,0,0-.93.32,6.09,6.09,0,0,1-1.22.07ZM7.43,6.45l0,0,.28-.13a1.51,1.51,0,0,1,.69-.09c.31,0,.71.4,1.13.47v3.75a6.1,6.1,0,0,1-1.22-.07A3,3,0,0,0,7.43,10Zm-2.54.22a6.42,6.42,0,0,0,1-.44l.14,0a1.61,1.61,0,0,1,1,.24V10a3,3,0,0,0-.93.32,6.11,6.11,0,0,1-1.22.07ZM10.47,11s0,.71,0,.71H4s0-.7,0-.71c0-.25-.42-.29-.42-.65S4,9.94,4,9.77V8.5c0-.2-.4-.17-.4-.66S4,7.42,4,7.21s0-.44,0-.53h.48v4.13H6.83c0,.27.35.32.41.32s.42,0,.42-.32H10V6.68h.5s0,.33,0,.53.41.16.41.63-.41.45-.41.66V9.78c0,.16.41.18.41.62S10.47,10.8,10.47,11Zm14.4-1.37a2.43,2.43,0,0,1-.33,2.17A3,3,0,0,1,22.68,13a4.51,4.51,0,0,1-3-.54l-.17-.09c-.15-.06-.51-.25-.92-.47a16.59,16.59,0,0,0-1.5-.74,3.07,3.07,0,0,0-1-.17,1.34,1.34,0,0,0-.76.19,1.33,1.33,0,0,1-.7.86l-.06,0a3.49,3.49,0,0,1-1.91.84.79.79,0,0,1-.89-.58l-.28-.06a.83.83,0,0,1,0-1.15c.09-.1.19-.21.19-.29a.24.24,0,0,0-.13-.26.57.57,0,0,1-.29-.54c0-.52,1.09-3.09,1.67-3.38l.16.25c.09,0,.14-.12.22-.26a1.47,1.47,0,0,1,.48-.51,1,1,0,0,1,1,.11s.05.06.07,0A.67.67,0,0,0,15,6.17a.94.94,0,0,1,.62-.45.86.86,0,0,1,.87.36c.1.12.12.13.18.13A.78.78,0,0,0,17,6.1.86.86,0,0,1,17.77,6a1,1,0,0,1,.72.77c0,.14,0,.19.11.22a.77.77,0,0,0,.45.07.9.9,0,0,1,.84.32.92.92,0,0,1,.16.82c0,.2,0,.33,0,.41a.41.41,0,0,0,.22.11.87.87,0,0,1,.6.47.94.94,0,0,1,0,.78c0,.13-.13.38,0,.47s.17.31.32.44a1.76,1.76,0,0,0,.86.39,1.34,1.34,0,0,0,1.08-.19.77.77,0,0,0,.18-.45.63.63,0,0,0-.26-.7.93.93,0,0,0-1,.3l-.2.3-.14-.33a1.63,1.63,0,0,1,0-1.49,1.39,1.39,0,0,1,1-.62,1.81,1.81,0,0,1,.69-1.63A1.85,1.85,0,0,1,25,6.29S24.11,7.29,24.86,9.68ZM32.22,11s0,.71,0,.71H25.8s0-.7,0-.71c0-.25-.42-.29-.42-.65s.41-.46.41-.62V8.5c0-.2-.41-.17-.41-.66s.41-.42.41-.63,0-.44,0-.53h.48v4.13h2.32c0,.27.35.32.41.32s.42,0,.42-.32h2.32V6.68h.5s0,.33,0,.53.41.16.41.63-.41.45-.41.66V9.78c0,.16.41.18.41.62S32.22,10.8,32.22,11Z" transform="translate(-1.92 -2.31)"/><path class="cls-3" d="M19.64,12.41l-.17-.09c-.15-.06-.51-.25-.92-.47a16.59,16.59,0,0,0-1.5-.74,1.93,1.93,0,0,0-1.71,0,1.33,1.33,0,0,1-.7.86l-.06,0a3.49,3.49,0,0,1-1.91.84.79.79,0,0,1-.89-.58l-.28-.06a.83.83,0,0,1,0-1.15c.09-.1.19-.21.19-.29a.24.24,0,0,0-.13-.26.57.57,0,0,1-.29-.54c0-.52,1.09-3.09,1.67-3.38l.16.25c.09,0,.14-.12.22-.26a1.47,1.47,0,0,1,.48-.51,1,1,0,0,1,1,.11s.05.06.07,0A.67.67,0,0,0,15,6.17a.94.94,0,0,1,.62-.45.86.86,0,0,1,.87.36c.1.12.12.13.18.13A.78.78,0,0,0,17,6.1.86.86,0,0,1,17.77,6a1,1,0,0,1,.72.77c0,.14,0,.19.11.22a.77.77,0,0,0,.45.07.9.9,0,0,1,.84.32.92.92,0,0,1,.16.82c0,.2,0,.33,0,.41a.41.41,0,0,0,.22.11.87.87,0,0,1,.6.47.94.94,0,0,1,0,.78c0,.13-.13.38,0,.47s.17.31.32.44a1.76,1.76,0,0,0,.86.39,1.34,1.34,0,0,0,1.08-.19.77.77,0,0,0,.18-.45.63.63,0,0,0-.26-.7.93.93,0,0,0-1,.3l-.2.3-.14-.33a1.63,1.63,0,0,1,0-1.49,1.39,1.39,0,0,1,1-.62,1.81,1.81,0,0,1,.69-1.63A1.85,1.85,0,0,1,25,6.29s-.88,1-.14,3.4a2.43,2.43,0,0,1-.33,2.17A3,3,0,0,1,22.68,13a4.56,4.56,0,0,1-.79.07,4.62,4.62,0,0,1-2.25-.61" transform="translate(-1.92 -2.31)"/><path class="cls-3" d="M10.9,29.84a2.94,2.94,0,1,0,0-5.87,2.94,2.94,0,1,0,0,5.87ZM28.32,26.9a3.11,3.11,0,1,0-3.11,2.94,3,3,0,0,0,3.11-2.94ZM18.08,23.6a3,3,0,1,0-3.17-3,3.1,3.1,0,0,0,3.17,3Zm0-8.83L31.58,27.61a17.52,17.52,0,0,1-1.86,3,23.06,23.06,0,0,1-3,3.28L18.11,25,9.5,33.93a22.72,22.72,0,0,1-2.82-3,20.31,20.31,0,0,1-2.05-3.28L18.11,14.76ZM8.46,5.89a1.61,1.61,0,0,0-1,.24H7a1.62,1.62,0,0,0-1-.24c-.32,0-.71.4-1.13.47H4.51v4.45H6.83c0,.27.35.32.41.32s.42,0,.42-.32H10V6.36H9.59C9.17,6.29,8.77,5.93,8.46,5.89ZM7,10a3,3,0,0,0-.93.32,6.11,6.11,0,0,1-1.22.07V6.68c.42-.07.82-.43,1.13-.47a1.61,1.61,0,0,1,1,.24Zm2.54.39a6.1,6.1,0,0,1-1.22-.07A3,3,0,0,0,7.43,10V6.45a1.61,1.61,0,0,1,1-.24c.31,0,.71.4,1.13.47ZM31.34,6.36c-.42-.07-.81-.43-1.13-.47a1.61,1.61,0,0,0-1,.24h-.41a1.61,1.61,0,0,0-1-.24c-.32,0-.71.4-1.13.47h-.38v4.45h2.32c0,.27.35.32.41.32s.42,0,.42-.32h2.32V6.36ZM28.79,10a3,3,0,0,0-.93.32,6.09,6.09,0,0,1-1.22.07V6.68c.42-.07.81-.43,1.13-.47a1.61,1.61,0,0,1,1,.24Zm2.54.39a6.09,6.09,0,0,1-1.22-.07,3,3,0,0,0-.93-.32V6.45a1.61,1.61,0,0,1,1-.24c.31,0,.71.4,1.13.47Z" transform="translate(-1.92 -2.31)"/><path class="cls-1" d="M31.33,10.42V6.68c-.42-.07-.82-.43-1.13-.47a1.52,1.52,0,0,0-.69.09l-.29.13,0,0V10a3,3,0,0,1,.93.32A6.09,6.09,0,0,0,31.33,10.42Z" transform="translate(-1.92 -2.31)"/><path class="cls-1" d="M27.87,10.35a3,3,0,0,1,.93-.32V6.45a1.61,1.61,0,0,0-1-.24l-.14,0a6.42,6.42,0,0,1-1,.44v3.75A6.09,6.09,0,0,0,27.87,10.35Z" transform="translate(-1.92 -2.31)"/><path class="cls-1" d="M6.11,10.35A3,3,0,0,1,7,10V6.45a1.61,1.61,0,0,0-1-.24l-.14,0a6.42,6.42,0,0,1-1,.44v3.75A6.11,6.11,0,0,0,6.11,10.35Z" transform="translate(-1.92 -2.31)"/><path class="cls-1" d="M32.23,9.78V8.5c0-.2.41-.17.41-.66s-.41-.42-.41-.63,0-.53,0-.53h-.5v4.12H29.41c0,.28-.36.32-.42.32s-.41-.05-.41-.32H26.27V6.68h-.48c0,.09,0,.33,0,.53s-.41.16-.41.63.41.45.41.66V9.77c0,.16-.41.18-.41.62s.42.4.42.65c0,0,0,.71,0,.71h6.42s0-.7,0-.71c0-.25.42-.29.42-.65S32.23,9.94,32.23,9.78Z" transform="translate(-1.92 -2.31)"/><path class="cls-1" d="M9.58,10.42V6.68c-.42-.07-.82-.43-1.13-.47a1.51,1.51,0,0,0-.69.09l-.28.13,0,0V10a3,3,0,0,1,.93.32A6.1,6.1,0,0,0,9.58,10.42Z" transform="translate(-1.92 -2.31)"/><path class="cls-1" d="M10.48,9.78V8.5c0-.2.41-.17.41-.66s-.41-.42-.41-.63,0-.53,0-.53H10v4.12H7.66c0,.28-.36.32-.42.32s-.41-.05-.41-.32H4.51V6.68H4C4,6.77,4,7,4,7.21s-.41.16-.41.63.4.45.4.66V9.77c0,.16-.41.18-.41.62S4,10.8,4,11c0,0,0,.71,0,.71h6.42s0-.7,0-.71c0-.25.42-.29.42-.65S10.48,9.94,10.48,9.78Z" transform="translate(-1.92 -2.31)"/><path class="cls-1" d="M13.65,7.54A4.76,4.76,0,0,1,16.07,7a4,4,0,0,1,3.19,1.55l0,.06.09.13c.17.26.6.87,1.06,1.43a2,2,0,0,1,.08-.29.63.63,0,0,0,0-.47.49.49,0,0,0-.36-.29.75.75,0,0,1-.4-.22.81.81,0,0,1-.14-.73c0-.23,0-.38-.06-.5a.52.52,0,0,0-.53-.19,1.14,1.14,0,0,1-.66-.12.63.63,0,0,1-.31-.47c0-.19-.09-.36-.47-.49a.47.47,0,0,0-.46.06,1.18,1.18,0,0,1-.48.16.57.57,0,0,1-.52-.27.49.49,0,0,0-.53-.22c-.13,0-.25.16-.35.3s-.27.35-.49.27a1.09,1.09,0,0,1-.19-.1.57.57,0,0,0-.62-.1.76.76,0,0,0-.32.35,1.22,1.22,0,0,1-.22.3l.1.29Z" transform="translate(-1.92 -2.31)"/><path class="cls-1" d="M24.48,9.77a5.16,5.16,0,0,1-.06-3.22,1.41,1.41,0,0,0-.85.3,1.65,1.65,0,0,0-.47,1.41v.18l-.18,0a1.15,1.15,0,0,0-.85.47,1.21,1.21,0,0,0-.05,1,1.3,1.3,0,0,1,1-.33c.66.06.7.69.66,1.09a1.09,1.09,0,0,1-.29.75,1.68,1.68,0,0,1-1.4.28A2.11,2.11,0,0,1,21,11.2c-.16-.13-.47-.45-.62-.62a15.79,15.79,0,0,1-1.28-1.63L19,8.84l0-.06A3.56,3.56,0,0,0,16,7.38c-.67,0-2.19.22-2.23.52a2,2,0,0,1,.19.79s.77,0,.92.14a1.33,1.33,0,0,1,.58-.33.77.77,0,0,1,.62.1,1,1,0,0,1,.4.45A.92.92,0,0,1,17.2,9a.84.84,0,0,1,.48.48.64.64,0,0,1,.47-.08c.29.07.42.35.52.55l.08.15s0,0,.13,0,.48,0,.63.57c.06.24-.35.24-.39.08s-.1-.24-.25-.25a.49.49,0,0,1-.45-.21,2,2,0,0,1-.1-.19c-.07-.14-.15-.31-.25-.34a.51.51,0,0,0-.35.15l-.23.17L17.4,9.8c-.07-.25-.18-.4-.32-.45a.7.7,0,0,0-.54.13l-.25.18-.06-.31a.63.63,0,0,0-.3-.42.4.4,0,0,0-.29-.06.92.92,0,0,0-.42.24l.14.17a3.59,3.59,0,0,0,.37.45.36.36,0,0,1,.11.33c0,.25-.18.44-.79.68l.14,0a2.31,2.31,0,0,1,2,0,15,15,0,0,1,1.56.77c.39.2.75.39.88.45l.2.1a4.1,4.1,0,0,0,2.79.5h0a2.6,2.6,0,0,0,1.6-.95A2.11,2.11,0,0,0,24.48,9.77Z" transform="translate(-1.92 -2.31)"/><polygon class="cls-1" points="20.74 10.26 20.71 10.26 20.7 10.26 20.7 10.26 20.74 10.26"/><path class="cls-1" d="M15.46,10v0h0Z" transform="translate(-1.92 -2.31)"/><path class="cls-1" d="M14.62,11a.25.25,0,0,1-.22-.2c0-.15.16-.25.27-.31a2.14,2.14,0,0,0,.77-.44,3.74,3.74,0,0,1-.4-.49l-.15-.2a.81.81,0,0,0-.65-.27c-.16,0-.38.3-.6.37s-.34-.19-.27-.34.24-.19.24-.39a2.46,2.46,0,0,0-.38-1.09A.36.36,0,0,0,13,7.37,6.19,6.19,0,0,0,11.7,10a.2.2,0,0,0,.12.22.61.61,0,0,1,.3.57.84.84,0,0,1-.28.55c-.07.08-.16.18-.16.24,0,.2,0,.35.5.35a1.6,1.6,0,0,0,.7-.15,1.65,1.65,0,0,0,.7-.63.2.2,0,0,1,.37.15c-.14.34-.62.55-.91.77a1.13,1.13,0,0,1-.82.18c-.08.08.16.29.46.29h.1a3.84,3.84,0,0,0,1.59-.8l.07,0a1.74,1.74,0,0,0,.49-.44c0-.06,0-.21,0-.22A1.25,1.25,0,0,0,14.62,11Z" transform="translate(-1.92 -2.31)"/><path class="cls-3" d="M13.35,10.53s-.1.26-.25.31l-.11,0a.19.19,0,0,1-.19-.12s0-.21,0-.28a.68.68,0,0,1,.23-.39s.41-.3.5-.25-.11.3-.1.34A.44.44,0,0,1,13.35,10.53Z" transform="translate(-1.92 -2.31)"/><path class="cls-1" d="M183.15,18.39h-8.28v.72h.25a1.88,1.88,0,0,1,1.74,1l6.47,15.7H184L189,23.89l4.14,11.93h.71l5.75-14.51s.7-2.34,2.83-2.17v-.74H196.6v.72a10.4,10.4,0,0,1,1.32.14,1.25,1.25,0,0,1,.91,1s-.17.61-.25.91-2.07,5.5-2.07,5.5l-1.46,3.88-.26.69s-.07.32-.16-.09c0,0-1.69-5-1.71-5.13S191,20.5,191,20.5s-.26-1.13,1.34-1.28c1.09-.1.86-.07,1.09-.1v-.7l-7.77,0v.72s1.34,0,1.79.84a24.78,24.78,0,0,1,1.07,2.71l-3.74,9-4.22-11.21s-.53-1.13,1.28-1.25l1.27-.09Z" transform="translate(-1.92 -2.31)"/><path class="cls-1" d="M210.32,34.67v.77h-7.84v-.77h.21s1.34,0,1.61-.42.38-.62.38-1.77V22.37a1.62,1.62,0,0,0-.63-1.49,8.54,8.54,0,0,0-1.19-.65v-.37l4.85-2.06v2.77s-.07.26.17-.07a12.61,12.61,0,0,1,2.37-2.39,2.74,2.74,0,0,1,2.39-.25,1.55,1.55,0,0,1,1.08,1.19,1.59,1.59,0,0,1-1.5,2c-.53,0-1.28-.71-2-.71a2.7,2.7,0,0,0-2.37,1.62V33.26a1.57,1.57,0,0,0,.76,1.25,2.88,2.88,0,0,0,1.21.16Z" transform="translate(-1.92 -2.31)"/><path class="cls-1" d="M232.3,34.07v.26l-5.14,1.5v-2.7c0-.11-.16.08-.16.08l-.41.55a6.53,6.53,0,0,1-3.44,2,7.8,7.8,0,0,1-3.86-.22c-2.77-.84-4.09-3.52-4.6-4.7-1.34-3.15-.18-7.37.32-8.38a7.49,7.49,0,0,1,4.74-4.06,9.46,9.46,0,0,1,7.05.65c.51.32.35,0,.35,0s0-5.18,0-7-2.44-1.69-2.44-1.69V10l5.54-2.19V33.43Zm-5.13-1.87V23.61a8.78,8.78,0,0,0-.51-2.11,4.38,4.38,0,0,0-3.16-2.65c-2.44-.53-4.43.37-5.62,3.51s-1.05,9.33,2.72,11.28S227.17,32.2,227.17,32.2Z" transform="translate(-1.92 -2.31)"/><path class="cls-1" d="M234.62,29.94h-.47v4.64a11.69,11.69,0,0,0,4.29,1.27,7.25,7.25,0,0,0,5.25-1.37,5.24,5.24,0,0,0,1.81-3.06,5,5,0,0,0-2.11-4.9c-2.31-1.81-8.15-2.76-6.39-6.41a2.58,2.58,0,0,1,2.71-1.37,3.87,3.87,0,0,1,3.3,2,5.76,5.76,0,0,1,1.05,2.6h.62V19.18A18.5,18.5,0,0,0,239.82,18a5.9,5.9,0,0,0-4.46,1.53,4.33,4.33,0,0,0-.76,5c.37.8,2.52,2.46,4.66,3.41,0,0,4.67,1.67,2.74,5.92a2,2,0,0,1-1.11.95,4,4,0,0,1-4.6-1,14.56,14.56,0,0,1-1.67-3.85" transform="translate(-1.92 -2.31)"/><path class="cls-1" d="M263.15,21.56h-1.51l-1.83-6-1.83,6h-1.5l-2.31-8.06,1.66-.3,1.56,5.92,1.73-5.84h1.59l1.73,5.84,1.51-5.84h1.6Z" transform="translate(-1.92 -2.31)"/><path class="cls-1" d="M271.82,21.56V18h-3.51v3.6h-1.59V13.29h1.59v3.26h3.51V13.29h1.6v8.28Z" transform="translate(-1.92 -2.31)"/><path class="cls-1" d="M280.8,21.65,280,19.47h-3.13l-.75,2.1h-1.57l3.11-8.31h1.69l3,8.11ZM278.44,15l-1.13,3.19h2.25Z" transform="translate(-1.92 -2.31)"/><path class="cls-1" d="M289.6,21.35l-1.62.3-2.16-3.25h-.72v3.17h-1.58V13.29h2.57c1.85,0,3,.88,3,2.48a2.32,2.32,0,0,1-1.66,2.33ZM286,14.56h-.88v2.63h.8c1,0,1.6-.47,1.6-1.33S287,14.56,286,14.56Z" transform="translate(-1.92 -2.31)"/><path class="cls-1" d="M293.94,14.67v6.9h-1.59v-6.9h-2.46V13.29h6.43l.23,1.38Z" transform="translate(-1.92 -2.31)"/><path class="cls-1" d="M300.77,21.72c-2.35,0-3.87-1.73-3.87-4.28s1.54-4.31,3.9-4.31,3.87,1.73,3.87,4.28S303.14,21.72,300.77,21.72Zm0-7.27c-1.42,0-2.27,1.16-2.27,3s.85,3,2.27,3,2.28-1.16,2.28-3S302.19,14.45,300.78,14.45Z" transform="translate(-1.92 -2.31)"/><path class="cls-1" d="M311.47,21.56l-3.9-5.7v5.7H306.1V13.29h1.5l3.72,5.42V13.29h1.47v8.28Z" transform="translate(-1.92 -2.31)"/><path class="cls-1" d="M323.19,21.35l-1.62.3-2.16-3.25h-.72v3.17h-1.58V13.29h2.57c1.85,0,3,.88,3,2.48A2.32,2.32,0,0,1,321,18.1Zm-3.63-6.79h-.88v2.63h.8c1,0,1.6-.47,1.6-1.33S320.56,14.56,319.56,14.56Z" transform="translate(-1.92 -2.31)"/><path class="cls-1" d="M324.23,21.56V13.29H329v1.34H325.8v1.94h2.5l.22,1.37H325.8v2.28h3.36v1.34Z" transform="translate(-1.92 -2.31)"/><path class="cls-1" d="M332.7,21.66a6,6,0,0,1-2.6-.58l.24-1.45a4.92,4.92,0,0,0,2.39.73c.73,0,1.24-.35,1.24-1s-.29-.86-1.49-1.38c-1.61-.66-2.25-1.19-2.25-2.47,0-1.46,1.13-2.31,2.67-2.31a4.45,4.45,0,0,1,2.18.5l-.24,1.44a3.69,3.69,0,0,0-2-.65c-.79,0-1.14.38-1.14.89s.26.78,1.42,1.26c1.7.7,2.33,1.28,2.33,2.57C335.48,20.82,334.29,21.66,332.7,21.66Z" transform="translate(-1.92 -2.31)"/><path class="cls-1" d="M336.84,21.56V13.29h4.81v1.34h-3.24v1.94h2.5l.22,1.37h-2.71v2.28h3.36v1.34Z" transform="translate(-1.92 -2.31)"/><path class="cls-1" d="M348.68,21.65l-.79-2.18h-3.13l-.75,2.1h-1.57l3.11-8.31h1.69l3,8.11ZM346.32,15l-1.13,3.19h2.25Z" transform="translate(-1.92 -2.31)"/><path class="cls-1" d="M357.48,21.35l-1.62.3L353.7,18.4H353v3.17H351.4V13.29H354c1.85,0,3,.88,3,2.48a2.32,2.32,0,0,1-1.66,2.33Zm-3.63-6.79H353v2.63h.8c1,0,1.6-.47,1.6-1.33S354.84,14.56,353.84,14.56Z" transform="translate(-1.92 -2.31)"/><path class="cls-1" d="M362,21.71c-2.41,0-3.92-1.7-3.92-4.27s1.57-4.29,3.91-4.29a4.32,4.32,0,0,1,2.31.6l-.23,1.5a3.32,3.32,0,0,0-2-.73c-1.46,0-2.36,1.12-2.36,2.91s1,2.9,2.42,2.9a3.79,3.79,0,0,0,2.1-.7l.22,1.37A4.55,4.55,0,0,1,362,21.71Z" transform="translate(-1.92 -2.31)"/><path class="cls-1" d="M371,21.56V18H367.5v3.6H365.9V13.29h1.59v3.26H371V13.29h1.6v8.28Z" transform="translate(-1.92 -2.31)"/><path class="cls-1" d="M257.31,35.56h-2.63V27.29h2.63c2.88,0,4.37,1.69,4.37,4.13S260.12,35.56,257.31,35.56Zm0-7h-1v5.66h1a2.51,2.51,0,0,0,2.78-2.83A2.54,2.54,0,0,0,257.29,28.6Z" transform="translate(-1.92 -2.31)"/><path class="cls-1" d="M268.28,35.65l-.79-2.18h-3.13l-.75,2.1H262l3.11-8.31h1.69l3,8.11ZM265.92,29l-1.13,3.19H267Z" transform="translate(-1.92 -2.31)"/><path class="cls-1" d="M273.49,28.67v6.9H271.9v-6.9h-2.46V27.29h6.43l.23,1.38Z" transform="translate(-1.92 -2.31)"/><path class="cls-1" d="M281.77,35.65,281,33.47h-3.13l-.75,2.1h-1.57l3.11-8.31h1.69l3,8.11ZM279.41,29l-1.13,3.19h2.25Z" transform="translate(-1.92 -2.31)"/><path class="cls-1" d="M289.31,35.66a6,6,0,0,1-2.6-.58l.24-1.45a4.92,4.92,0,0,0,2.39.73c.73,0,1.24-.35,1.24-1s-.29-.86-1.49-1.38c-1.61-.66-2.25-1.19-2.25-2.47,0-1.46,1.13-2.31,2.67-2.31a4.45,4.45,0,0,1,2.18.5l-.24,1.44a3.69,3.69,0,0,0-2-.65c-.79,0-1.14.38-1.14.89s.26.78,1.42,1.26c1.7.7,2.33,1.28,2.33,2.57C292.09,34.82,290.9,35.66,289.31,35.66Z" transform="translate(-1.92 -2.31)"/><path class="cls-1" d="M293.45,35.56V27.29h4.81v1.34H295v1.94h2.5l.22,1.37H295v2.28h3.36v1.34Z" transform="translate(-1.92 -2.31)"/><path class="cls-1" d="M305.75,35.35l-1.62.3L302,32.4h-.72v3.17h-1.58V27.29h2.57c1.85,0,3,.88,3,2.48a2.32,2.32,0,0,1-1.66,2.33Zm-3.63-6.79h-.88v2.63h.8c1,0,1.6-.47,1.6-1.33S303.11,28.56,302.11,28.56Z" transform="translate(-1.92 -2.31)"/><path class="cls-1" d="M310.51,35.6H309l-3-8.11,1.68-.29,2.21,6.34L312,27.29h1.66Z" transform="translate(-1.92 -2.31)"/><path class="cls-1" d="M314.81,35.56V27.29h1.59v8.28Z" transform="translate(-1.92 -2.31)"/><path class="cls-1" d="M321.8,35.71c-2.41,0-3.92-1.7-3.92-4.27s1.57-4.29,3.91-4.29a4.32,4.32,0,0,1,2.31.6l-.23,1.5a3.32,3.32,0,0,0-2-.73c-1.46,0-2.36,1.12-2.36,2.91s1,2.9,2.42,2.9a3.79,3.79,0,0,0,2.1-.7l.22,1.37A4.55,4.55,0,0,1,321.8,35.71Z" transform="translate(-1.92 -2.31)"/><path class="cls-1" d="M325.71,35.56V27.29h4.81v1.34h-3.24v1.94h2.5l.22,1.37h-2.71v2.28h3.36v1.34Z" transform="translate(-1.92 -2.31)"/><path class="cls-1" d="M334.18,35.66a6,6,0,0,1-2.6-.58l.24-1.45a4.92,4.92,0,0,0,2.39.73c.73,0,1.24-.35,1.24-1s-.29-.86-1.49-1.38c-1.61-.66-2.25-1.19-2.25-2.47,0-1.46,1.13-2.31,2.67-2.31a4.45,4.45,0,0,1,2.18.5l-.24,1.44a3.69,3.69,0,0,0-2-.65c-.79,0-1.14.38-1.14.89s.26.78,1.42,1.26c1.7.7,2.33,1.28,2.33,2.57C337,34.82,335.77,35.66,334.18,35.66Z" transform="translate(-1.92 -2.31)"/></svg>