<?xml version="1.0" encoding="UTF-8" standalone="no" ?>
<svg xmlns:dc="http://purl.org/dc/elements/1.1/" xmlns:cc="http://creativecommons.org/ns#" xmlns:rdf="http://www.w3.org/1999/02/22-rdf-syntax-ns#" xmlns:svg="http://www.w3.org/2000/svg" xmlns="http://www.w3.org/2000/svg" viewBox="0 0 1153.3333 284" height="284" width="1153.3333" xml:space="preserve" version="1.1" id="svg2">
    <metadata id="metadata8">
        <rdf:RDF>
            <cc:Work rdf:about="">
                <dc:format>image/svg+xml</dc:format>
                <dc:type rdf:resource="http://purl.org/dc/dcmitype/StillImage" />
            </cc:Work>
        </rdf:RDF>
    </metadata>
    <defs id="defs6" />
    <g transform="matrix(1.3333333,0,0,-1.3333333,0,284)" id="g10">
        <g transform="scale(0.1)" id="g12">
            <path id="path14" style="fill:#FFFFFF;fill-opacity:1;fill-rule:nonzero;stroke:none" d="m 5274.39,865.406 0,276.444 c -89.3,-38.63 -319.66,-94.65 -319.66,-214.608 0,-79.453 59.62,-145.312 142.98,-145.312 75.47,0 119.14,40.859 176.68,83.476 l 0,0 z m 2.61,324.414 0,211.02 c 0,77.46 -49.57,98.04 -123,98.04 -71.49,0 -174.3,-48.24 -174.69,-90.23 -0.12,-11.64 4.69,-25.9 4.69,-45.27 0,-73.56 -18.56,-123.29 -103.87,-123.29 -35.74,0 -59.53,34.93 -59.53,65.9 0,42.66 29.76,83.24 71.44,118.13 89.22,73.51 232.15,133.59 349.22,133.59 121.17,0 186.56,-71.68 186.56,-187.85 l 0,-518.829 c 0,-32.969 0,-91.093 45.66,-91.093 31.73,0 49.62,40.664 55.56,65.82 l 31.75,0 c -9.96,-92.891 -49.53,-147.11 -144.81,-147.11 -73.51,0 -135,65.86 -137.02,133.555 -93.25,-67.695 -156.76,-133.555 -279.81,-133.555 -91.29,0 -176.64,71.563 -176.64,164.61 0,212.932 293.83,278.752 454.49,346.562 l 0,0" />
            <path id="path16" style="fill:#FFFFFF;fill-opacity:1;fill-rule:nonzero;stroke:none" d="m 7000.95,1118.96 c 0,-149.179 55.59,-395.546 249.96,-395.546 188.63,0 254.1,195.938 254.1,348.946 0,164.65 -23.83,445.9 -252.03,445.9 -194.53,0 -252.03,-254.22 -252.03,-399.3 l 0,0 z m -168.72,7.66 c 0,234.29 168.72,433.71 414.73,433.71 260,0 426.8,-195.51 426.8,-441.37 0,-251.796 -162.89,-437.694 -424.72,-437.694 -265.98,0 -416.81,199.453 -416.81,445.354 l 0,0" />
            <path id="path18" style="fill:#FFFFFF;fill-opacity:1;fill-rule:nonzero;stroke:none" d="m 2009.35,1997.12 0,45 451.13,0 0,-45 c -83.32,-1.91 -115.08,-1.6 -115.08,-51.87 0,-1.99 1.33,-15.43 9.3,-34.77 l 272.07,-923.746 382.54,1099.496 31.52,0 333.87,-1085.86 c 0,0 263.98,793.83 263.98,906.17 0,88.98 -56.17,82.89 -127.66,90.58 l 0,45 276.49,0.36 c 121.76,0 245.86,41.32 316.41,83.75 l 0,-702.27 c 85.58,76.29 158.75,137.5 281.83,137.5 91.21,0 176.64,-40.7 222.31,-118.12 41.64,-67.74 49.61,-131.64 49.61,-207.15 l 0,-389.182 c 0,-100.703 25.74,-100.703 113.08,-106.485 l 0,-36.796 -377.07,0 0,36.796 c 81.41,5.782 107.19,5.782 107.19,106.485 l 0,389.182 c 0,61.99 0,89.06 -27.81,147.19 -31.8,56.17 -88.32,110.46 -160.74,98.71 -109.34,-17.7 -151.41,-68.75 -208.4,-122.97 l 0,-512.112 c 0,-100.703 25.82,-100.703 109.18,-106.485 l 0,-36.796 -381.06,0 0,36.796 c 89.34,5.782 115.08,5.782 115.08,106.485 l 0,1138.242 c 2.27,1.72 -30.9,0.35 -71.37,-0.47 -152.23,-9.69 -156.25,-125.31 -204.64,-264.14 L 3329.11,679 3293.37,679 2955.91,1723.14 2565.05,679 l -33.75,0 -360.55,1146.17 c -21.56,59.85 -31.75,110.35 -63.55,143.28 -17.81,17.39 -18.68,28.87 -97.85,28.67 l 0,0" />
            <path id="path20" style="fill:#FFFFFF;fill-opacity:1;fill-rule:nonzero;stroke:none" d="m 8072.67,702.633 0,36.679 c -85.44,5.938 -111.13,5.938 -111.13,106.602 l 0,458.826 c 0,89.1 119.02,170.43 204.44,170.43 128.95,0 198.41,-81.33 198.41,-203.36 l 0,-425.896 c 0,-100.664 -25.75,-100.664 -115.12,-106.602 l 0,-36.679 392.89,0 0,36.679 c -67.35,5.938 -121.02,5.938 -121.02,106.602 l 0,458.826 c 0,145.24 -146.83,255.59 -289.68,255.59 -125.08,0 -188.6,-57.85 -269.92,-139.18 l 0,139.18 c -85.36,-30.98 -175.79,-75.94 -268.87,-88.4 l 0,-30.7 c 82.69,-8.68 112.06,-35.16 112.06,-108.71 l 0,-486.606 c 0,-100.664 -25.77,-100.664 -115.07,-106.602 l 0,-36.679 383.01,0 0,0" />
            <path id="path22" style="fill:#FFFFFF;fill-opacity:1;fill-rule:nonzero;stroke:none" d="m 5999.15,702.633 0,36.679 c -101.09,5.938 -126.95,5.938 -126.95,106.602 l 0,513.006 c 0,31.02 51.44,79.18 107.19,80 51.59,0.7 60.62,-59.72 125.31,-59.72 79.45,0 98.98,42.38 98.98,100.31 0,60.08 -64.68,94.41 -137.03,94.41 -85.31,0 -151.25,-74.14 -198.36,-139.18 l 0,131.37 c -90.08,-41.25 -187.46,-79.73 -276.33,-93.83 l 0,-30.98 c 88.6,-9.14 123.44,-30.15 123.44,-105.5 l 0,-489.886 c 0,-100.664 -25.78,-100.664 -111.13,-106.602 l 0,-36.679 394.88,0 0,0" />
            <path id="path24" style="fill:#FFFFFF;fill-opacity:1;fill-rule:nonzero;stroke:none" d="m 6827.51,1512.95 28.79,106.52 -341.49,0 0,172.58 -20.04,0 c -79.76,-94.89 -156.71,-175.24 -248.75,-256.68 l 0,-22.42 108.44,0 0,-583.52 c 0,-138.516 62.39,-253.477 212.47,-253.477 128.9,0 226.99,93.75 280.23,156.367 l -23.55,32.774 c -46.88,-52.383 -108.75,-82.656 -164.97,-82.656 -114.68,0 -143.83,61.796 -143.83,168.32 l 0,562.192 312.7,0 0,0" />
            <path id="path26" style="fill:#FFFFFF;fill-opacity:1;fill-rule:nonzero;stroke:none" d="m 2236.97,454.535 0,-16.601 2.03,-0.204 c 24.52,-2.531 36.82,-10.175 38.73,-24.042 l 0.96,-6.438 1.88,-18.758 0,-131.68 c 0,-75.402 -34.36,-116.925 -96.73,-116.925 -59.63,0 -86.22,35.351 -86.22,114.621 l 0,144.004 c -0.07,34.609 -0.07,34.609 33.11,38.554 l 7.6,0.907 -0.01,16.562 -131.82,0 0,-16.562 7.59,-0.907 c 33.22,-3.937 33.22,-3.937 33.16,-38.457 l 0,-146.484 c 0,-96.172 41.4,-139.055 134.25,-139.055 59.18,0 128.3,37.18 128.3,141.946 l 0,133.476 1.79,18.926 0.89,6.309 c 1.95,14.07 13.88,21.484 38.69,24.003 l 2.03,0.204 0,16.601 -116.23,0" />
            <path id="path28" style="fill:#FFFFFF;fill-opacity:1;fill-rule:nonzero;stroke:none" d="m 2573.26,378.91 0,-13.797 2.08,-0.156 c 24.52,-1.914 34.71,-7.012 36.3,-18.156 0,0.031 0.7,-4.805 0.7,-4.805 l 1.43,-14.676 c 0,0 0,-134.55 0,-144.59 -6.04,7.274 -162.18,195.36 -162.18,195.36 l -70.44,0.82 0,-13.965 2.26,0 c 20.21,0 31.12,-11.843 40.57,-23.972 l -0.48,-170.645 -1.34,-13.781 -0.8,-5.613 c -1.52,-10.684 -10.58,-16.282 -29.38,-18.086 l -2.04,-0.196 0,-13.84 93.97,0 0,13.899 -2.1,0.144 c -24.25,1.692 -34.77,6.946 -36.32,18.137 0.01,-0.051 -0.84,5.75 -0.84,5.75 l -1.37,13.586 c 0,0 0,143.856 0,155.274 7.38,-8.743 103.75,-122.813 103.75,-122.813 l 70.8,-83.984 15.8,0.007 0,208.508 1.44,14.539 0.73,4.981 c 1.41,10.461 10.48,16.055 29.41,18.117 l 2.02,0.223 0,13.73 -93.97,0" />
            <path id="path30" style="fill:#FFFFFF;fill-opacity:1;fill-rule:nonzero;stroke:none" d="m 2730.14,378.91 0,-13.711 6.28,-0.75 c 25.17,-3 25.17,-3 25.12,-29.394 l 0,-172.414 c 0.05,-26.317 0.05,-26.317 -25.1,-29.286 l -6.31,-0.753 0.01,-13.79 102.67,0 0,13.79 -6.26,0.742 c -25.12,2.961 -25.12,2.961 -25.07,28.898 l 0,173.211 c -0.05,26.008 -0.05,26.008 25.08,28.996 l 6.26,0.75 -0.01,13.711 -102.67,0" />
            <path id="path32" style="fill:#FFFFFF;fill-opacity:1;fill-rule:nonzero;stroke:none" d="m 3062.36,378.91 0,-13.965 2.26,0 c 12.2,0 20.26,-2.761 23.94,-8.222 1.62,-2.371 2.42,-5.301 2.42,-8.778 0,-4.043 -1.09,-8.82 -3.27,-14.277 l -16.59,-41.184 c 0,0 -45.25,-110.925 -49.42,-121.16 -3.6,10.684 -52.52,155.692 -52.52,155.692 -2.79,8.164 -4.19,15 -4.19,20.449 0,4.414 0.92,7.93 2.76,10.5 3.45,4.824 10.23,6.98 21.98,6.98 l 2.26,0 0,13.965 -103.77,0 0,-13.965 2.26,0 c 14.81,0 26.12,-8.015 40.09,-48.984 0,-0.027 69.99,-197.149 69.99,-197.149 l 21.78,0 92.89,225.54 c 7.77,18.457 19.85,20.593 28.25,20.593 l 2.26,0 0,13.965 -83.38,0" />
            <path id="path34" style="fill:#FFFFFF;fill-opacity:1;fill-rule:nonzero;stroke:none" d="m 3197.48,378.91 0,-13.711 6.28,-0.75 c 25.22,-3 25.22,-3 25.17,-29.297 l 0,-172.609 c 0.05,-26.231 0.05,-26.231 -25.15,-29.188 l -6.31,-0.753 0.01,-13.79 183.94,0 11.61,70.215 -13.64,0 -6.68,-16.367 c -10.85,-27.402 -14.91,-37.656 -59.03,-37.656 -33.22,0 -44.85,2.57 -44.85,31.301 0,0 0,75.925 0,80.203 3.88,0 28.44,0 28.44,0 21.2,0 30.57,-9.598 31.34,-32.078 l 0.08,-2.18 13.93,0 0,82.324 -13.94,0 -0.07,-2.176 c -0.7,-21.289 -9.48,-29.582 -31.34,-29.582 0,0 -24.56,0 -28.44,0 0,4.231 0,95.715 0,99.942 4.12,0 47.47,0 47.47,0 23.99,0 31.18,-17.313 34.99,-45.235 l 0.26,-1.953 13.68,0 0,63.34 -167.75,0" />
            <path id="path36" style="fill:#FFFFFF;fill-opacity:1;fill-rule:nonzero;stroke:none" d="m 3619.73,186.949 c 0,0 -28.36,43.153 -34.45,52.422 30.89,13.133 50.19,41.484 50.19,75.098 0,44.519 -38.21,64.441 -76.08,64.441 l -108.47,0 0,-13.711 6.29,-0.75 c 25.2,-3.008 25.2,-3.008 25.15,-29.504 l 0,-172.195 c 0.05,-26.426 0.05,-26.426 -25.13,-29.395 l -6.32,-0.753 0.01,-13.79 102.75,0 0,13.801 -6.28,0.742 c -24.06,2.821 -25.13,2.95 -25.13,25.684 0,1.055 0.01,68.68 0.01,72.899 l 32.02,0 c 0,0 -0.02,-0.02 -0.02,-0.047 0,-2.141 31.2,-57.403 31.2,-57.403 20.07,-37.07 30.14,-55.676 46.3,-55.676 l 39.87,0 0,6.946 c -12.12,8.484 -30.64,30.078 -51.91,61.191 z m -69.45,61.219 c 0,0 -24.15,0 -28.01,0 l 0,114.59 c 3.82,0 25.87,0 25.87,0 21.1,0 46.25,-8.926 46.25,-51.453 0,-41.895 -14.84,-63.137 -44.11,-63.137" />
            <path id="path38" style="fill:#FFFFFF;fill-opacity:1;fill-rule:nonzero;stroke:none" d="m 3728.96,322.242 c 0,-38.984 23.46,-54.57 42.32,-67.101 l 2.94,-1.961 c 55.91,-36.953 66.5,-55.684 66.5,-77.344 0,-24.777 -19.65,-44.191 -44.74,-44.191 -32.1,0 -53.25,20.41 -56.54,54.601 l -0.19,2.039 -13.88,0 0,-54.871 c 0,-4.707 2.44,-6.476 3.9,-7.109 21.06,-8.106 41.17,-11.867 63.36,-11.867 43.9,0 90.57,24.464 90.57,69.796 0,30.828 -12.63,50.164 -52,79.578 l -13.02,9.68 c -28.99,21.387 -48.14,35.516 -48.14,56.836 0,22.332 14.19,35.672 37.94,35.672 33.63,0 41.86,-27.578 43.77,-44.023 l 0.23,-1.993 13.72,0 0,50.227 c 0,1.309 0,4.773 -4.16,5.996 -18.31,6.531 -44.25,7.039 -51.77,7.039 -44.56,0 -80.81,-27.363 -80.81,-61.004" />
            <path id="path40" style="fill:#FFFFFF;fill-opacity:1;fill-rule:nonzero;stroke:none" d="m 3954.59,378.91 0,-13.711 6.31,-0.75 c 25.26,-3.008 25.26,-3.008 25.21,-29.511 l 0,-172.188 c 0.05,-26.426 0.05,-26.426 -25.2,-29.395 l -6.33,-0.753 0.01,-13.79 102.83,0 0,13.79 -6.28,0.753 c -25.14,2.957 -25.14,2.957 -25.09,29.083 l 0,172.812 c -0.05,26.211 -0.05,26.211 25.11,29.199 l 6.27,0.75 -0.01,13.711 -102.83,0" />
            <path id="path42" style="fill:#FFFFFF;fill-opacity:1;fill-rule:nonzero;stroke:none" d="m 4121.28,378.91 -10.68,-60.293 13.23,0 3.3,6.641 c 10.72,21.769 18.48,37.5 46.48,37.5 0,0 26.75,0 30.67,0 0,-4.414 0.01,-202.09 0.01,-203.067 0,-23.367 -0.98,-23.484 -25.22,-26.336 l -6.32,-0.753 0,-13.79 102.76,0 0,13.79 -6.26,0.753 c -23.96,2.821 -25.04,2.95 -25.04,25.653 0,1.054 0.01,199.336 0.01,203.75 3.92,0 30.56,0 30.56,0 28.1,0 35.84,-15.867 46.55,-37.84 l 3.1,-6.309 13.3,0.008 -10.59,60.293 -205.86,0" />
            <path id="path44" style="fill:#FFFFFF;fill-opacity:1;fill-rule:nonzero;stroke:none" d="m 4525.57,378.91 0,-13.965 2.25,0 c 11.13,0 18.97,-2.929 22.08,-8.23 1.07,-1.817 1.6,-3.945 1.6,-6.348 0,-4.219 -1.62,-9.277 -4.83,-14.992 -0.01,-0.02 -38.72,-70.625 -48.17,-87.852 -3.49,7.219 -42.39,87.735 -42.39,87.735 -3.13,6.496 -6.07,13.488 -6.07,18.867 0,1.945 0.38,3.672 1.28,5.09 2.38,3.808 8.73,5.73 18.85,5.73 l 2.25,0 0,13.965 -97.75,0 0,-13.965 2.26,0 c 15.64,0 25.37,-8.289 37.16,-31.687 l 56.21,-111.367 -0.24,-59.532 c 0.06,-26.047 0.06,-26.047 -25.2,-29.004 l -6.29,-0.742 0,-13.801 102.91,0 0,13.79 -6.25,0.742 c -25.13,2.961 -25.13,2.961 -25.07,28.898 l 0,45.391 c 0,8.172 0.45,18.465 4.02,25.547 l 61.01,110.742 c 10.46,18.633 20.42,21.023 27.91,21.023 l 2.25,0 0,13.965 -79.78,0" />
            <path id="path46" style="fill:#FFFFFF;fill-opacity:1;fill-rule:nonzero;stroke:none" d="m 4789.73,208.492 c 0,62.031 53.56,154.922 132.5,154.922 62.98,0 76.73,-42.617 76.73,-85.234 0,-52.11 -41.65,-162.852 -132,-162.852 -60.62,0 -77.23,48.789 -77.23,93.164 l 0,0 z m 165.71,92.383 c 0,49.297 -29.8,51.133 -37.38,51.133 -51.1,0 -84.73,-91.914 -84.73,-153.36 0,-24.648 4.22,-69.023 39.18,-69.023 54.02,0 82.93,88.867 82.93,171.25 l 0,0" />
            <path id="path48" style="fill:#FFFFFF;fill-opacity:1;fill-rule:nonzero;stroke:none" d="m 5219.23,347.75 -11.37,-10 -62.03,0 C 5122.71,225.094 5084.86,75.0156 5057.82,3.14062 l -21.32,0 67.73,334.60938 -45,0 4.25,19.922 44.54,0 c 25,100.82 108.44,111.211 128.2,111.211 10.98,0 33.67,-1.797 40.86,-8.438 l -5.86,-31.289 -11.79,-5.703 c -6.65,12.735 -21.72,27.422 -41.53,27.422 -28.59,0 -49.76,-19.297 -61.17,-70.391 l -5.2,-22.812 69.53,0 -1.83,-9.922 0,0" />
            <path id="path50" style="fill:#FFFFFF;fill-opacity:1;fill-rule:nonzero;stroke:none" d="m 5414.75,454.535 0,-16.562 7.57,-0.907 c 33.21,-3.937 33.21,-3.937 33.14,-38.359 l 0,-224.062 c 0.07,-34.395 0.07,-34.395 -33.05,-38.352 l -7.68,-0.918 0.02,-16.563 131.77,0 0,16.563 -7.67,0.93 c -31.69,3.789 -33.04,3.945 -33.04,34.304 0,1.348 0.01,259.856 0.01,264.297 3.84,0 26.61,0 26.61,0 52.03,0 76.26,-23.926 76.26,-75.281 0,-27.227 -7.75,-49.238 -22.41,-63.672 -14.44,-14.219 -35.24,-21.211 -61.82,-20.793 l -2.29,0.039 0,-13.758 2.12,-0.129 c 43.07,-2.578 82.06,9.407 106.97,32.872 19.24,18.125 29.4,42.355 29.4,70.089 0,59.051 -41.4,90.262 -119.75,90.262 l -126.16,0" />
            <path id="path52" style="fill:#FFFFFF;fill-opacity:1;fill-rule:nonzero;stroke:none" d="m 5721.39,378.91 0,-13.711 6.29,-0.75 c 25.16,-3.008 25.16,-3.008 25.11,-29.492 l 0,-172.219 c 0.05,-26.414 0.05,-26.414 -25.1,-29.383 l -6.31,-0.753 0.01,-13.79 183.78,0 11.8,70.215 -13.67,0 -6.69,-16.257 c -10.95,-27.481 -15.05,-37.766 -59.02,-37.766 -33.25,0 -44.89,2.57 -44.89,31.301 0,0 0,75.925 0,80.203 3.87,0 28.48,0 28.48,0 21.24,0 30.57,-9.59 31.18,-32.059 l 0.06,-2.199 14.06,0 0,82.324 -14.06,0 -0.06,-2.195 c -0.55,-21.27 -9.29,-29.563 -31.18,-29.563 0,0 -24.61,0 -28.48,0 0,4.231 0,95.715 0,99.942 4.12,0 47.39,0 47.39,0 24.11,0 31.3,-17.313 35.07,-45.235 l 0.26,-1.953 13.68,0 0,63.34 -167.71,0" />
            <path id="path54" style="fill:#FFFFFF;fill-opacity:1;fill-rule:nonzero;stroke:none" d="m 6152.36,378.91 0,-13.797 2.08,-0.156 c 24.62,-1.914 34.81,-7.004 36.34,-18.145 l 0.67,-4.308 1.54,-15.184 c 0,0 0,-134.543 0,-144.59 -6.06,7.293 -162.14,195.36 -162.14,195.36 l -70.4,0.82 0,-13.965 2.26,0 c 20.14,0 31.04,-11.843 40.48,-23.972 l -0.48,-170.645 -1.53,-14.816 -0.71,-4.52 c -1.45,-10.754 -10.5,-16.347 -29.31,-18.144 l -2.04,-0.196 0,-13.84 93.93,0 0,13.899 -2.1,0.144 c -24.45,1.7 -34.59,6.79 -36.2,18.137 l -0.75,5 -1.42,14.336 c 0,0 0,143.848 0,155.274 7.38,-8.743 102.62,-121.536 102.62,-121.536 l 71.89,-85.254 15.68,0 0,208.508 1.4,14.188 0.78,5.344 c 1.5,10.449 10.59,16.043 29.48,18.105 l 2.02,0.223 0,13.73 -94.09,0" />
            <path id="path56" style="fill:#FFFFFF;fill-opacity:1;fill-rule:nonzero;stroke:none" d="m 6485.72,378.91 0,-13.797 2.08,-0.156 c 24.54,-1.914 34.76,-7.004 36.42,-18.164 l 0.7,-5.156 1.31,-14.317 c 0,0 0,-134.414 0,-144.55 -6.14,7.402 -162.18,195.32 -162.18,195.32 l -70.4,0.82 0,-13.965 2.26,0 c 20.35,0 31.24,-11.843 40.63,-23.972 l -0.47,-170.645 -1.41,-14.465 -0.71,-4.902 c -1.59,-10.711 -10.68,-16.309 -29.47,-18.113 l -2.04,-0.196 0,-13.84 93.97,0 0,13.899 -2.1,0.144 c -24.18,1.692 -34.7,6.946 -36.28,18.137 0.01,-0.039 -0.76,5.235 -0.76,5.235 l -1.37,14.101 c 0,0 0,143.848 0,155.274 7.34,-8.704 97.16,-115.051 97.16,-115.051 l 77.39,-91.746 15.6,0.007 0,208.508 1.51,14.649 0.74,4.851 c 1.43,10.469 10.51,16.067 29.41,18.137 l 2.02,0.223 0,13.73 -94.01,0" />
            <path id="path58" style="fill:#FFFFFF;fill-opacity:1;fill-rule:nonzero;stroke:none" d="m 6644.24,322.242 c 0,-38.859 23.35,-54.453 42.11,-66.984 l 3.1,-2.078 c 55.94,-36.895 66.55,-55.645 66.55,-77.344 0,-24.777 -19.67,-44.191 -44.78,-44.191 -32.06,0 -53.22,20.421 -56.62,54.609 l -0.21,2.031 -13.75,0 0,-54.871 c 0,-3.312 1.35,-5.879 3.72,-7.062 20.89,-8.047 41.59,-11.914 63.5,-11.914 43.93,0 90.62,24.464 90.62,69.796 0,30.899 -12.65,50.235 -52.04,79.578 l -13.28,9.903 c -28.81,21.301 -47.85,35.371 -47.85,56.613 0,33.094 28.96,35.672 37.83,35.672 33.86,0 42,-27.578 43.84,-44.012 l 0.23,-2.004 13.81,0 0,50.227 c 0,3.133 -1.42,5.156 -4.23,5.996 -18.27,6.531 -44.16,7.039 -51.66,7.039 -44.6,0 -80.89,-27.363 -80.89,-61.004" />
            <path id="path60" style="fill:#FFFFFF;fill-opacity:1;fill-rule:nonzero;stroke:none" d="m 7001.15,378.91 0,-13.965 2.26,0 c 11.07,0 18.89,-2.91 21.98,-8.203 1.07,-1.816 1.6,-3.945 1.6,-6.355 0,-4.219 -1.62,-9.289 -4.81,-15.012 -0.01,-0.008 -38.79,-70.633 -48.25,-87.859 -3.49,7.226 -42.36,87.734 -42.36,87.734 -3.09,6.543 -5.97,13.594 -5.97,18.965 0,1.941 0.38,3.672 1.27,5.078 2.38,3.75 8.68,5.652 18.73,5.652 l 2.25,0 0,13.965 -97.52,0 0,-13.965 2.26,0 c 15.5,0 25.18,-8.289 36.97,-31.687 l 56.21,-111.367 -0.24,-59.649 c 0.06,-25.937 0.06,-25.937 -25.07,-28.898 l -6.27,-0.742 0.01,-13.79 102.71,0 0,13.79 -6.29,0.753 c -25.16,2.957 -25.16,2.957 -25.11,29.188 l 0,45.09 c 0,11.543 1.37,19.902 4.18,25.555 l 60.93,110.734 c 10.47,18.633 20.42,21.023 27.9,21.023 l 2.26,0 0,13.965 -79.63,0" />
            <path id="path62" style="fill:#FFFFFF;fill-opacity:1;fill-rule:nonzero;stroke:none" d="m 7139.32,378.91 0,-13.711 6.29,-0.75 c 25.2,-3.008 25.2,-3.008 25.15,-29.504 l 0,-172.195 c 0.05,-26.426 0.05,-26.426 -25.14,-29.395 l -6.31,-0.753 0.01,-13.79 183.47,0 11.68,70.215 -13.36,0 -6.43,-15.75 c -11.04,-27.851 -15.17,-38.273 -59.55,-38.273 -34.47,0 -44.51,3.391 -44.51,25.793 l 0,174.539 c -0.05,26.125 -0.05,26.125 25.18,29.113 l 6.28,0.75 -0.01,13.711 -102.75,0" />
            <path id="path64" style="fill:#FFFFFF;fill-opacity:1;fill-rule:nonzero;stroke:none" d="m 7511,378.91 0,-13.965 2.25,0 c 12.23,0 20.3,-2.761 23.98,-8.191 1.6,-2.363 2.4,-5.293 2.4,-8.762 0,-4.051 -1.09,-8.836 -3.28,-14.324 l -20.03,-49.699 c 0,0 -41.74,-102.469 -45.88,-112.637 -3.6,10.684 -52.54,155.684 -52.54,155.684 -2.81,8.183 -4.22,15.031 -4.22,20.48 0,4.414 0.92,7.91 2.75,10.477 3.45,4.824 10.21,6.972 21.94,6.972 l 2.25,0 0,13.965 -103.76,0 0,-13.965 2.25,0 c 14.75,0 26.03,-8.015 40.13,-48.984 0.01,-0.027 70.03,-197.149 70.03,-197.149 l 21.71,0 93,225.54 c 7.61,18.457 19.68,20.593 28.1,20.593 l 2.26,0 0,13.965 -83.34,0" />
            <path id="path66" style="fill:#FFFFFF;fill-opacity:1;fill-rule:nonzero;stroke:none" d="m 7833.45,132.855 c -13.94,0 -19.32,9.817 -27.51,30.645 l -55.24,161.25 -19.65,58.508 -23.67,-0.012 -26.4,-71.121 c -25.21,-68.242 -51.27,-138.801 -62.84,-162.363 -5.06,-10.43 -14.37,-16.907 -24.3,-16.907 l -2.26,0 0,-14.043 71.04,0 0,14.043 -2.26,0 c -6.67,0 -11.77,2.188 -14.75,6.34 -1.85,2.539 -2.78,5.684 -2.78,9.188 0,2.433 0.45,5.051 1.35,7.754 0,0 14.9,42.941 16.42,47.324 l 89.77,0 c 0.97,-2.891 15.2,-45.566 15.2,-45.566 1.79,-4.852 2.69,-8.915 2.69,-12.247 0,-2.793 -0.62,-5.066 -1.88,-6.875 -2.73,-3.925 -8.77,-5.918 -17.97,-5.918 l -2.26,0 0,-14.043 89.55,0 0,14.043 -2.25,0 z m -165.87,89.024 c 2.02,5.519 37.22,101.633 40.52,110.637 2.99,-9.133 34.46,-105.254 36.22,-110.637 l -76.74,0" />
            <path id="path68" style="fill:#FFFFFF;fill-opacity:1;fill-rule:nonzero;stroke:none" d="m 8608.56,132.855 c -13.93,0 -19.31,9.817 -27.51,30.645 l -55.23,161.25 -19.66,58.508 -23.66,-0.012 -26.41,-71.121 c -25.2,-68.242 -51.27,-138.801 -62.84,-162.363 -5.05,-10.43 -14.36,-16.907 -24.29,-16.907 l -2.26,0 0,-14.043 71.03,0 0,14.043 -2.25,0 c -6.67,0 -11.77,2.188 -14.76,6.34 -1.84,2.539 -2.77,5.684 -2.77,9.188 0,2.433 0.45,5.051 1.35,7.754 0,0 14.9,42.941 16.41,47.324 l 89.78,0 c 0.97,-2.891 15.19,-45.566 15.19,-45.566 1.8,-4.852 2.7,-8.915 2.7,-12.247 0,-2.793 -0.63,-5.066 -1.88,-6.875 -2.73,-3.925 -8.77,-5.918 -17.97,-5.918 l -2.26,0 0,-14.043 89.55,0 0,14.043 -2.26,0 z m -165.86,89.024 c 2.02,5.519 37.21,101.633 40.51,110.637 2.99,-9.133 34.47,-105.254 36.22,-110.637 l -76.73,0" />
            <path id="path70" style="fill:#FFFFFF;fill-opacity:1;fill-rule:nonzero;stroke:none" d="m 8062.91,378.91 0,-13.797 2.08,-0.156 c 24.53,-1.926 34.7,-7.004 36.26,-18.145 l 0.6,-3.957 1.53,-15.535 c 0,0 0,-134.543 0,-144.59 -6.04,7.266 -72.89,87.774 -72.89,87.774 l -89.25,107.586 -70.48,0.82 0,-13.965 2.26,0 c 20.46,0 31.22,-11.836 40.46,-23.953 l -0.45,-170.664 -1.46,-15.031 -0.63,-4.317 c -1.46,-10.73 -10.52,-16.328 -29.39,-18.132 l -2.04,-0.196 0,-13.84 94.04,0 0,13.899 -2.09,0.144 c -24.29,1.692 -34.8,6.946 -36.28,18.118 0,0.019 -0.69,4.382 -0.69,4.382 l -1.52,14.973 c 0,0 0,143.856 0,155.274 7.32,-8.664 174.63,-206.797 174.63,-206.797 l 15.6,0.007 0,208.508 1.43,13.973 0.83,5.559 c 1.49,10.437 10.56,16.043 29.4,18.105 l 2.02,0.223 0,13.73 -93.97,0" />
            <path id="path72" style="fill:#FFFFFF;fill-opacity:1;fill-rule:nonzero;stroke:none" d="m 8212.25,378.91 0,-13.711 6.27,-0.75 c 25.19,-2.988 25.19,-2.988 25.13,-29.199 l 0,-172.805 c 0.06,-26.133 0.06,-26.133 -25.11,-29.09 l -6.3,-0.753 0.01,-13.79 102.79,0 0,13.79 -6.3,0.753 c -25.19,2.969 -25.19,2.969 -25.15,29.286 l 0,172.414 c -0.04,26.394 -0.04,26.394 25.16,29.394 l 6.3,0.75 -0.01,13.711 -102.79,0" />
            <path id="path74" style="fill:#154281;fill-opacity:1;fill-rule:nonzero;stroke:none" d="m 3.5625,2043.53 0,-912.96 C 3.5625,386.012 812.715,9.57031 916.543,6.28906 1020.41,9.57031 1829.99,386.012 1829.99,1130.57 l 0,912.96 -1826.4275,0" />
            <path id="path76" style="fill:#a80c30;fill-opacity:1;fill-rule:nonzero;stroke:none" d="m 51.5938,1996.85 c 0,-38.67 0.039,-489.21 0.039,-528.03 l 1729.3472,0 c 0,0 0.07,489.59 0.07,528.27 -41.98,0 -1687.4758,-0.24 -1729.4562,-0.24 z M 477.438,1634.47 c -0.313,-0.39 -0.04,-39.76 -0.04,-39.76 l -362.386,0.15 c 0,0 0.269,39.38 -0.039,39.73 0,13.98 -23.7894,16.37 -23.7894,36.76 0,24.92 23.0464,25.74 23.0464,34.8 l 0,71.95 c 0,11.52 -22.8902,9.88 -22.8902,36.99 0,26.33 23.1252,23.87 23.1252,35.39 0,11.49 0.43,24.85 0.074,29.81 l 26.918,0 0,18.09 c 0,0 15.82,0 21.68,0 23.672,3.94 46.015,24.33 63.789,26.32 17.734,1.96 37.461,-1.99 57.187,-13.82 l 23.008,0 c 19.727,11.83 39.414,15.78 57.149,13.82 17.769,-1.99 40.121,-22.38 63.792,-26.32 5.938,0 21.719,0 21.719,0 l 0,-18.25 28.086,0 c 0,0 0.117,-18.32 0.117,-29.8 0,-11.53 23.086,-9.06 23.086,-35.39 0,-27.11 -22.851,-25.47 -22.851,-36.99 l 0,-71.95 c 0,-9.07 23.008,-9.89 23.008,-34.81 0,-20.39 -23.789,-22.77 -23.789,-36.72 z M 1297.72,1711 c 14.84,-47.62 4.18,-89.73 -18.4,-122.07 -36.49,-52.23 -102.23,-62 -104.65,-62.27 -85.63,-15 -145.71,16.76 -171.33,30.43 -3.985,2.19 -7.422,4.06 -9.61,4.92 -8.632,3.63 -28.593,14.1 -51.64,26.33 -32.031,16.8 -72.07,37.97 -84.414,41.68 -21.758,7.15 -39.453,9.61 -53.594,9.61 -23.594,0 -37.187,-6.95 -43.047,-10.9 -4.883,-26.33 -22.695,-36.8 -39.258,-48.59 l -3.593,-2.62 c -25.86,-18.83 -65.157,-47.15 -107.7,-47.15 -25.625,0 -44.14,8.79 -50.312,32.81 l -15.703,3.28 c -26.328,26.33 -4.922,56.8 2.031,64.69 5,5.51 10.469,11.68 10.469,16.14 0,9.06 -2.149,10.66 -7.305,14.41 -6.484,4.45 -16.133,11.21 -16.133,30.16 0,29.33 61.446,174.33 94.18,190.26 l 8.789,-14.06 c 5.316,2.27 8.051,6.92 12.66,14.65 0,0 12.07,21.02 27.031,28.48 25,12.54 44.454,0.54 56.094,-6.49 2.617,-1.72 2.852,-3.28 4.18,-2.46 1.445,1.06 3.125,3.64 5.312,6.49 7.618,10.11 18.125,23.75 34.961,25.31 30.196,2.73 41.524,-11.21 48.867,-20.55 5.508,-6.64 6.641,-7.5 10.391,-7.07 7.188,0.63 12.344,3.32 18.242,6.49 10.078,5.31 22.696,11.91 43.438,4.72 33.086,-11.48 37.656,-30.74 40.703,-43.55 1.836,-7.78 2.734,-10.51 6.289,-12.35 9.062,-4.88 16.719,-4.49 25.625,-4.06 13.242,0.71 29.767,1.76 47.307,-17.97 13.4,-14.96 10.78,-32.22 8.79,-46.01 -1.64,-11.21 -2.31,-18.4 1.87,-22.85 3.56,-3.75 7.03,-4.61 12.23,-6.05 9.33,-2.58 21.99,-6.06 33.79,-26.61 8.75,-15.39 3.9,-31.21 0,-43.86 -2.19,-7.23 -7.23,-21.29 0.27,-26.61 11.06,-8.04 9.34,-17.69 18.13,-25 16.68,-14.1 35.23,-19.92 48.32,-21.99 26.17,-4.22 48.9,-0.31 60.82,10.43 6.75,6.25 8.47,15.28 10.39,25.31 1.99,10.55 2.3,30.4 -14.38,39.42 -13.24,7.38 -44.49,-1.13 -55.12,-16.95 l -11.36,-17 -7.93,18.87 c -14.06,33.63 -14.49,61.95 -1.41,84.14 14.22,24.14 39.1,31.64 55.24,34.8 0.43,45.39 13.51,75.24 39.14,91.92 43.86,28.43 89.14,10.46 89.14,10.58 0,0 -49.92,-56.48 -7.81,-191.24 z m 414.18,-76.53 c -0.31,-0.39 -0.04,-39.76 -0.04,-39.76 l -362.38,0.15 c 0,0 0.27,39.38 -0.04,39.73 0,13.98 -23.79,16.37 -23.79,36.76 0,24.92 23.01,25.74 23.01,34.8 l 0,71.95 c 0,11.52 -22.86,9.88 -22.86,36.99 0,26.33 23.09,23.87 23.09,35.39 0,11.49 0.43,24.85 0.12,29.81 l 26.91,0 0,18.09 c 0,0 15.78,0 21.68,0 23.67,3.94 46.02,24.33 63.79,26.32 17.73,1.96 37.42,-1.99 57.19,-13.82 l 23.01,0 c 19.72,11.83 39.41,15.78 57.14,13.82 17.78,-1.99 40.12,-22.38 63.75,-26.32 5.94,0 21.72,0 21.72,0 l 0,-18.25 28.13,0 c 0,0 0.12,-18.32 0.12,-29.8 0,-11.53 23.08,-9.06 23.08,-35.39 0,-27.11 -22.89,-25.47 -22.89,-36.99 l 0,-71.95 c 0,-9.07 23.05,-9.89 23.05,-34.81 0,-20.39 -23.79,-22.77 -23.79,-36.72" />
            <path id="path78" style="fill:#ffffff;fill-opacity:1;fill-rule:nonzero;stroke:none" d="M 430.875,345.738 C 640.332,153.828 867.832,53.6719 916.543,52.0703 965.254,53.6719 1192.83,153.828 1402.29,345.816 L 916.66,847.961 430.875,345.738 Z M 1094,1097.02 c 0,93.28 -80.27,169.29 -179.059,169.29 -98.75,0 -178.906,-76.01 -178.906,-169.29 0,-93.56 80.156,-169.532 178.906,-169.532 98.789,0 179.059,75.972 179.059,169.532 z M 685.488,741.355 c 0,91.211 -78.636,165.278 -175.355,165.278 -96.992,0 -175.278,-74.067 -175.278,-165.278 0,-91.714 78.286,-165.503 175.278,-165.503 96.719,0 175.355,73.789 175.355,165.503 z m 631.842,165.278 c -96.65,0 -175.28,-74.067 -175.28,-165.278 0,-91.714 78.63,-165.503 175.28,-165.503 97.07,0 175.31,73.789 175.31,165.503 0,91.211 -78.24,165.278 -175.31,165.278 z M 51.6875,1425.06 l 0.043,-296.09 c 0,-159.954 40.5429,-302.654 103.8285,-428.04 L 916.66,1424.86 1677.6,701.047 c 63.24,125.43 103.79,268.203 103.79,428.193 l 0.05,295.82 -1729.7525,0" />
            <path id="path80" style="fill:#ffffff;fill-opacity:1;fill-rule:nonzero;stroke:none" d="m 720.332,1639.08 c -5,0.59 -11.641,4.92 -12.344,11.37 -1.172,8.63 8.907,13.94 14.961,17.26 24.414,9.5 40.117,20.24 43.516,24.93 -9.766,9.57 -17.031,19.53 -22.813,27.42 -3.437,4.45 -6.211,8.32 -8.75,11.21 -9.961,10.66 -20.898,15.23 -36.445,15.23 -9.062,0 -21.25,-16.79 -33.633,-20.97 -15.664,-5.2 -19.101,10.62 -15.234,19.1 4.297,9.22 13.359,10.55 13.359,22.03 0,20.97 -10.742,41.72 -21.289,61.52 -3.832,11.09 -15.082,12.97 -15.082,12.97 -21.172,-10.2 -71.055,-121.95 -71.055,-149.29 0,-7.62 1.563,-8.75 6.641,-12.23 6.719,-4.73 16.797,-11.8 16.797,-32.34 0,-12.93 -8.438,-22.43 -16.094,-30.79 -3.906,-4.45 -9.219,-10.35 -9.219,-13.36 0,-11.36 -0.429,-19.57 28.204,-19.57 16.406,0 30.625,3.72 39.687,8.36 15.664,8.21 34.106,23.13 39.301,35.51 8.437,10.35 22.969,1.45 20.664,-8.63 -8.047,-19.3 -35.234,-31.1 -51.606,-43.13 -19.687,-14.53 -46.757,-10.5 -46.054,-9.96 -4.766,-4.76 8.984,-16.09 25.82,-16.09 1.875,0 3.789,0.16 5.703,0.43 35.082,5.35 66.332,28.05 89.848,45.31 l 3.75,2.58 c 10.82,7.77 21.445,14.69 27.773,24.84 2.032,3.21 1.328,11.72 -0.859,12.27 -3.867,1.17 -8.789,3.32 -15.547,4.02" />
            <path id="path82" style="fill:#154281;fill-opacity:1;fill-rule:nonzero;stroke:none" d="m 648.574,1663.22 c 0,-0.66 -5.469,-14.33 -14.262,-17.22 -1.953,-0.51 -4.218,-1.02 -6.484,-1.02 -3.984,0 -8.008,1.48 -10.469,6.91 -2.578,2.62 -1.289,11.8 -0.703,15.82 1.602,9.18 7.774,17.27 13.242,21.72 0,0 23.012,16.68 28.168,14.38 1.719,-0.7 -6.171,-16.95 -5.859,-18.99 2.852,-14.68 -3.633,-21.6 -3.633,-21.6" />
            <path id="path84" style="fill:#ffffff;fill-opacity:1;fill-rule:nonzero;stroke:none" d="m 665.215,1831.62 c 32.5,29.02 124.883,31.76 136.64,31.17 117.54,-6.68 164.571,-67.27 180.04,-87.18 l 2.46,-3.17 c 0.782,-1.01 1.836,-2.62 5.118,-7.5 9.687,-14.61 33.707,-49.3 59.567,-80.43 0.75,5.28 2.78,11.29 4.26,16.17 3.09,10 5.9,19.5 1.8,26.61 -7.19,12.61 -12.78,14.14 -20.43,16.28 -6.53,1.76 -14.61,3.99 -22.35,12.19 -11.75,12.42 -9.49,28.28 -7.65,41.01 1.87,13.09 2.69,21.37 -3.4,28.25 -10.586,11.83 -17.813,11.44 -29.844,10.78 -10.078,-0.59 -22.617,-1.25 -37.149,6.56 -12.578,6.76 -15.195,17.77 -17.304,26.64 -2.618,10.9 -4.844,20.39 -26.524,27.89 -11.719,4.06 -16.992,1.25 -25.82,-3.44 -6.68,-3.55 -15.078,-8 -26.797,-8.98 -15.898,-1.33 -23.633,8.28 -29.258,15.27 -6.367,7.81 -11.406,14.06 -29.804,12.35 -7.305,-0.67 -13.829,-9.18 -19.532,-16.68 -6.758,-8.79 -15.156,-19.77 -27.617,-15.24 -3.633,1.33 -7.148,3.44 -10.859,5.74 -12.071,7.47 -21.602,12.15 -34.727,5.63 -9.14,-4.61 -13.164,-11.64 -17.89,-19.77 -3.243,-5.66 -6.758,-11.79 -12.188,-16.83 l 5.508,-16.25 c 1.211,-2.23 2.539,-4.77 3.75,-7.07" />
            <path id="path86" style="fill:#ffffff;fill-opacity:1;fill-rule:nonzero;stroke:none" d="m 767.52,1691.58 -0.43,2.15 c -0.117,-0.27 -0.313,-0.7 -0.625,-1.09 0.195,-0.2 0.39,-0.43 0.625,-0.63 l 0.43,-0.43" />
            <path id="path88" style="fill:#ffffff;fill-opacity:1;fill-rule:nonzero;stroke:none" d="m 1173.42,1548.42 -1.29,0.04 -0.76,-0.1 c -0.02,0 -0.14,-0.02 -0.14,-0.02 l 2.19,0.08" />
            <path id="path90" style="fill:#ffffff;fill-opacity:1;fill-rule:nonzero;stroke:none" d="m 1276.15,1706.31 c -29.06,97.42 -11.48,151.99 -3.44,181.56 -15.11,1.29 -34.76,-7.27 -47.85,-17.03 -18.2,-13.68 -27.03,-40.43 -26.29,-79.42 l 0.16,-10.12 -10,-1.05 c -8.09,-0.9 -35.39,-5.39 -47.85,-26.56 -7.81,-13.16 -9.38,-32.93 -2.93,-53.83 13.16,13.79 36.76,20.67 58.01,18.64 37.3,-3.48 39.29,-38.99 36.95,-61.29 -1.76,-16.96 -4.57,-31.6 -16.37,-42.35 -17.07,-15.47 -45.9,-21.25 -79.02,-15.86 -19.22,3.09 -40.2,10.39 -59.34,26.61 -8.9,7.5 -26.29,25.39 -34.96,34.92 -31.64,34.88 -60.935,74.65 -72.458,92.03 -1.875,2.81 -3.672,5.51 -3.985,5.94 l -2.617,3.36 c -15.351,19.8 -56.211,72.45 -163.515,78.51 -37.969,1.99 -123.711,-12.54 -125.938,-29.03 5.977,-13.94 10.742,-28.98 10.742,-44.68 0,0 43.516,0.59 51.875,-7.66 8.555,8.87 18.985,14.3 32.891,18.79 10.195,3.36 23.203,1.17 34.922,-5.74 10.273,-6.09 17.734,-14.65 22.578,-25.16 9.883,4.46 23.789,8.87 38.125,3.99 11.758,-4.06 20.469,-13.2 26.914,-27.07 9.844,5.19 18.242,6.64 26.562,4.61 16.055,-3.83 23.711,-19.53 29.297,-31.02 1.602,-3.32 3.125,-6.4 4.492,-8.55 0.508,-0.82 1.524,-1.14 7.149,-1.33 10.234,-0.39 27.344,-1.52 35.351,-32.19 3.594,-13.67 -20.039,-13.28 -21.992,-4.29 -3.008,13.59 -5.547,13.75 -14.218,14.06 -7.266,0.31 -18.243,0.7 -25.235,11.76 -2.07,3.2 -3.828,6.87 -5.703,10.74 -3.828,7.85 -8.594,17.61 -14.336,19.02 -4.375,1.06 -11.406,-1.87 -19.883,-8.24 l -13.008,-9.84 -4.531,15.66 c -4.023,14.14 -10.117,22.66 -18.047,25.43 -11.289,3.91 -25.937,-3.95 -30.586,-7.31 l -14.336,-10.35 -3.281,17.35 c -1.836,9.68 -7.929,18.24 -16.758,23.43 -6.836,4.07 -13.281,4.77 -16.562,3.68 -10.469,-3.36 -17.5,-7.19 -23.555,-13.44 2.5,-3.13 5.43,-6.02 8.047,-9.57 5.859,-7.89 12.422,-16.84 21.094,-25.28 5.508,-5.27 7.773,-11.95 6.406,-18.82 -2.695,-13.83 -10.273,-24.89 -44.609,-38.25 l 7.656,-2.14 c 15.195,9.33 49.492,22.46 112.148,2.11 13.164,-4.03 44.766,-20.51 88.008,-43.29 21.68,-11.44 42.149,-22.22 49.926,-25.46 3,-1.29 6.71,-3.25 11.4,-5.75 25.67,-13.59 79.1,-41.91 157.23,-28.24 l 0.49,0.06 c 1.85,0.27 59.47,9.39 90.02,53.26 18.9,27.11 27.19,63.17 14.76,104.69" />
            <path id="path92" style="fill:#ffffff;fill-opacity:1;fill-rule:nonzero;stroke:none" d="m 231.809,1673.81 c 11.836,5.27 37.148,18.01 52.304,18.01 l 0,201.32 c -19.531,11.68 -39.043,15.65 -56.629,13.77 -2.804,-0.51 -5.578,-1.05 -8.125,-1.82 -16.367,-5.48 -35.793,-21.05 -56.222,-24.49 l 0,-210.93 c 0,0 56.875,-1.13 68.672,4.14 z m 195.589,-4.14 0,210.93 c -23.671,3.99 -45.984,24.34 -63.753,26.29 -12.141,1.39 -25.235,-0.3 -38.614,-5.13 -6.172,-2.9 -11.804,-6.07 -17.683,-8.17 -0.305,-0.18 -0.598,-0.27 -0.891,-0.45 l 0,-201.32 c 15.117,0 40.465,-12.74 52.305,-18.01 11.793,-5.27 68.636,-4.14 68.636,-4.14 z m 50.821,36.33 0,71.95 c 0,11.52 22.851,9.88 22.851,36.99 0,26.33 -23.086,23.86 -23.086,35.39 0,11.48 -0.117,29.8 -0.117,29.8 l -28.086,0 0,-232.18 -130.707,0 c 0,-16.02 -20.312,-18.13 -23.594,-18.13 -3.281,0 -23.203,2.82 -23.203,18.13 l -130.82,0 0,232.34 -26.918,0 c 0.356,-4.96 -0.074,-18.32 -0.074,-29.81 0,-11.52 -23.1252,-9.06 -23.1252,-35.39 0,-27.11 22.8902,-25.47 22.8902,-36.99 l 0,-71.95 c 0,-9.06 -23.0464,-9.88 -23.0464,-34.8 0,-20.39 23.7894,-22.78 23.7894,-36.76 0.308,-0.35 0.039,-39.73 0.039,-39.73 l 362.386,-0.15 c 0,0 -0.273,39.37 0.04,39.76 0,13.95 23.789,16.33 23.789,36.72 0,24.92 -23.008,25.74 -23.008,34.81 z m 988.051,-32.19 c 11.84,5.27 37.15,18.01 52.31,18.01 l 0,201.32 c -19.57,11.68 -39.06,15.66 -56.66,13.77 -2.8,-0.51 -5.54,-1.05 -8.07,-1.81 -16.37,-5.47 -35.81,-21.06 -56.25,-24.5 l 0,-210.93 c 0,0 56.88,-1.13 68.67,4.14 z m 195.55,-4.14 0,210.93 c -23.63,3.99 -45.98,24.34 -63.71,26.29 -12.12,1.39 -25.22,-0.29 -38.57,-5.1 -6.24,-2.93 -11.9,-6.12 -17.82,-8.23 -0.28,-0.17 -0.56,-0.26 -0.84,-0.42 l 0,-201.32 c 15.16,0 40.47,-12.74 52.35,-18.01 11.79,-5.27 68.59,-4.14 68.59,-4.14 z m 50.82,36.33 0,71.95 c 0,11.52 22.89,9.88 22.89,36.99 0,26.33 -23.08,23.86 -23.08,35.39 0,11.48 -0.12,29.8 -0.12,29.8 l -28.13,0 0,-232.18 -130.66,0 c 0,-16.02 -20.31,-18.13 -23.59,-18.13 -3.29,0 -23.25,2.82 -23.25,18.13 l -130.78,0 0,232.34 -26.91,0 c 0.31,-4.96 -0.12,-18.32 -0.12,-29.81 0,-11.52 -23.09,-9.06 -23.09,-35.39 0,-27.11 22.86,-25.47 22.86,-36.99 l 0,-71.95 c 0,-9.06 -23.01,-9.88 -23.01,-34.8 0,-20.39 23.79,-22.78 23.79,-36.76 0.31,-0.35 0.04,-39.73 0.04,-39.73 l 362.38,-0.15 c 0,0 -0.27,39.37 0.04,39.76 0,13.95 23.79,16.33 23.79,36.72 0,24.92 -23.05,25.74 -23.05,34.81" />
        </g>
    </g>
</svg>
